<svg xmlns="http://www.w3.org/2000/svg" xmlns:xlink="http://www.w3.org/1999/xlink" id="Layer_1" viewBox="0 0 94.89 146.81"><defs><linearGradient id="linear-gradient" x1="68.73" y1="79.27" x2="68.73" y2="53.5" gradientUnits="userSpaceOnUse"><stop offset="0" stop-color="#0e7dba"></stop><stop offset="1" stop-color="#25b8eb"></stop></linearGradient><linearGradient id="linear-gradient-2" x1="65.32" y1="107.01" x2="65.32" y2="85.62" xlink:href="#linear-gradient"></linearGradient><linearGradient id="linear-gradient-3" x1="32.57" y1="93.33" x2="32.57" y2="76.22" xlink:href="#linear-gradient"></linearGradient><linearGradient id="linear-gradient-4" x1="54.17" y1="145.02" x2="54.17" y2="10.19" xlink:href="#linear-gradient"></linearGradient><linearGradient id="linear-gradient-5" x1="40.73" y1="135.25" x2="40.73" y2="3.17" xlink:href="#linear-gradient"></linearGradient><linearGradient id="linear-gradient-6" x1="40.73" y1="136.63" x2="40.73" y2="1.79" xlink:href="#linear-gradient"></linearGradient></defs><polygon points="4.98 33.4 76.61 5.92 77.74 16.55 91.02 14 91.28 113.83 17.49 141.66 17.98 129.44 3.89 133.86 4.98 33.4" fill="#fff"></polygon><g><g opacity=".41"><rect x="30.14" y="55.07" width="4.17" height="22.31" fill="#848484"></rect><polygon points="34.23 126.97 30.07 128.68 30.07 92.59 34.23 92.59 34.23 126.97" fill="#848484"></polygon><rect x="65.41" y="47.74" width="4.17" height="13.87" fill="#848484"></rect><polygon points="31.81 58.78 30.15 55.06 38.25 51.66 39.91 55.38 31.81 58.78" fill="#848484"></polygon><polygon points="32.95 111.54 31.3 107.83 54.34 98.17 55.99 101.88 32.95 111.54" fill="#848484"></polygon><polygon points="34 127.07 32.34 123.36 54.34 114.14 56 117.84 34 127.07" fill="#848484"></polygon></g><polygon points="11.24 53.65 11.24 57.01 16.55 54.77 16.55 51.38 11.24 53.65" fill="#4db963"></polygon><polygon points="11.24 62.71 11.24 66.07 16.55 63.83 16.55 60.44 11.24 62.71" fill="#4db963"></polygon><polygon points="11.24 71.57 11.24 74.92 16.55 72.69 16.55 69.29 11.24 71.57" fill="#4db963"></polygon><polygon points="11.24 80.84 11.24 84.2 16.55 81.96 16.55 78.56 11.24 80.84" fill="#4db963"></polygon><polygon points="11.24 89.83 11.24 93.19 16.55 90.95 16.55 87.56 11.24 89.83" fill="#4db963"></polygon><polygon points="11.24 98.61 11.24 101.97 16.55 99.73 16.55 96.34 11.24 98.61" fill="#4db963"></polygon><polygon points="11.24 108.9 11.24 112.26 16.55 110.02 16.55 106.62 11.24 108.9" fill="#4db963"></polygon><path d="M55.18,79.27v-14.34l27.11-11.43-.14,13.77-26.97,12ZM59,67.35v6.15l19.35-8.61.06-5.72-19.41,8.18Z" fill="url(#linear-gradient)"></path><path d="M53.61,107.01v-12.13l23.42-9.25-.13,11.67-23.3,9.71ZM57.43,97.37v4.03l15.69-6.54.04-3.7-15.73,6.21Z" fill="url(#linear-gradient-2)"></path><path d="M54.08,122.54v-12.13l23.42-9.25-.13,11.67-23.3,9.71ZM57.9,112.89v4.03l15.69-6.54.04-3.7-15.73,6.21Z" fill="#4db963"></path><path d="M37.11,61.65v-17.18l38.05-14.02-.19,16.48-37.86,14.72ZM40.93,47.03v9.16l30.25-11.76.1-8.58-30.35,11.18Z" fill="#4db963"></path><path d="M31.47,93.33c-2.06,0-4.04-.7-5.52-2.14-1.6-1.55-2.38-3.69-2.19-6.03.18-2.23,1.23-4.37,2.96-6.05,3.65-3.54,9.24-3.87,12.47-.75h0c3.22,3.12,2.88,8.54-.77,12.08-1.97,1.91-4.52,2.89-6.94,2.89ZM33.67,79.91c-.13,0-.26,0-.4.02-1.39.11-2.76.75-3.84,1.8-1.09,1.05-1.75,2.38-1.86,3.72-.1,1.24.28,2.35,1.08,3.12,1.74,1.68,4.9,1.34,7.07-.75,2.16-2.09,2.51-5.17.77-6.85-.72-.69-1.71-1.06-2.82-1.06Z" fill="url(#linear-gradient-3)"></path><path d="M15.42,145.02V40.88L92.91,10.19v103.92l-77.49,30.91ZM19.24,43.37v96.13l69.85-27.87V15.7L19.24,43.37Z" fill="url(#linear-gradient-4)"></path><g><path d="M16.87,127.69l-12.02,4.79V34.35L76.61,5.92v12.91c.59-.29,1.22-.53,1.91-.7V3.17L2.94,33.1v102.14l14.11-5.63c-.13-.64-.18-1.29-.18-1.93Z" fill="url(#linear-gradient-5)"></path><path d="M1.98,136.63V32.48L79.48,1.79v17.07l-.72.18c-.61.15-1.18.36-1.71.63l-1.4.7V7.3L5.81,34.97v96.13l12.03-4.8v1.4c-.02.59.03,1.18.15,1.75l.15.74-16.15,6.44ZM3.89,133.86h0s10.62-4.24,10.62-4.24l-10.62,4.24ZM77.57,4.54l-14.95,5.92,14.95-5.92Z" fill="url(#linear-gradient-6)"></path></g></g></svg>